<svg data-v-fde0c5aa="" xmlns="http://www.w3.org/2000/svg" viewBox="0 0 300 300" class="font"><!----><defs data-v-fde0c5aa=""><!----></defs><rect data-v-fde0c5aa="" fill="#F3EEEE" x="0" y="0" width="300px" height="300px" class="logo-background-square"></rect><defs data-v-fde0c5aa=""><linearGradient data-v-fde0c5aa="" gradientTransform="rotate(25)" id="c8644d54-6099-4669-82d6-dd8652897d4f" x1="0%" y1="0%" x2="100%" y2="0%"><stop data-v-fde0c5aa="" offset="0%" stop-color="#87544E" stop-opacity="1"></stop><stop data-v-fde0c5aa="" offset="100%" stop-color="#87544E" stop-opacity="1"></stop></linearGradient></defs><g data-v-fde0c5aa="" id="32a3072b-3dee-442c-b64a-b2413bff4059" fill="url(#c8644d54-6099-4669-82d6-dd8652897d4f)" transform="matrix(4.5948206478707565,0,0,4.5948206478707565,32.7401837269212,109.72639653939694)"><path d="M1.58 13.78L2.41 13.78L2.41 9.91L4.20 9.91C6.24 9.91 7.52 9.03 7.52 7.15C7.52 5.21 6.24 4.54 4.20 4.54L1.58 4.54ZM2.41 9.21L2.41 5.21L4.03 5.21C5.81 5.21 6.68 5.67 6.68 7.15C6.68 8.61 5.82 9.21 4.03 9.21ZM14.14 13.96C14.84 13.96 15.30 13.75 15.88 13.51L15.65 12.88C15.12 13.15 14.71 13.27 14.29 13.27C13.38 13.27 12.88 12.75 12.88 11.63L12.88 3.57L9.63 3.57L9.63 4.26L12.07 4.26L12.07 11.56C12.07 13.19 12.81 13.96 14.14 13.96ZM20.36 13.96C21.35 13.96 22.36 13.37 23.13 12.73L23.17 12.73L23.24 13.78L23.91 13.78L23.91 9.27C23.91 7.67 23.11 6.47 21.29 6.47C20.10 6.47 19.12 7.08 18.63 7.50L18.97 8.11C19.46 7.67 20.22 7.17 21.17 7.17C22.62 7.17 23.09 8.19 23.10 9.28C19.50 9.62 18.05 10.37 18.05 12.00C18.05 13.30 19.14 13.96 20.36 13.96ZM20.54 13.29C19.68 13.29 18.84 12.89 18.84 11.94C18.84 10.85 19.87 10.18 23.10 9.87L23.10 12.05C22.22 12.87 21.36 13.29 20.54 13.29ZM26.61 13.78L27.43 13.78L27.43 8.71C28.34 7.67 28.95 7.18 29.85 7.18C31.11 7.18 31.63 7.92 31.63 9.44L31.63 13.78L32.44 13.78L32.44 9.32C32.44 7.42 31.68 6.47 30.04 6.47C28.98 6.47 28.18 7.10 27.43 7.98L27.37 7.98L27.29 6.64L26.61 6.64ZM35.01 13.78L35.83 13.78L35.83 8.71C36.74 7.67 37.35 7.18 38.25 7.18C39.51 7.18 40.03 7.92 40.03 9.44L40.03 13.78L40.84 13.78L40.84 9.32C40.84 7.42 40.08 6.47 38.44 6.47C37.38 6.47 36.58 7.10 35.83 7.98L35.77 7.98L35.69 6.64L35.01 6.64ZM44.20 13.78L45.01 13.78L45.01 9.39C45.91 7.81 46.90 7.22 47.98 7.22C48.52 7.22 48.76 7.28 49.25 7.49L49.46 6.76C49.04 6.52 48.58 6.47 48.12 6.47C46.80 6.47 45.72 7.25 45.00 8.40L44.95 8.40L44.88 6.64L44.20 6.64Z"></path></g><!----><!----></svg>